<svg width="830" height="1118" viewBox="0 0 830 1118" 
    xmlns="http://www.w3.org/2000/svg" xmlns:xlink="http://www.w3.org/1999/xlink">
<g id="table">
<rect transform="translate(0 0)" width="830" height="48" fill="#ffffff"></rect>
<rect transform="translate(0 0)" width="830" height="1" fill="#e0e0e0"></rect>
<rect transform="translate(0 48)" width="830" height="48" fill="#ffffff"></rect>
<rect transform="translate(0 48)" width="830" height="1" fill="#e0e0e0"></rect>
<rect transform="translate(0 96)" width="830" height="48" fill="#ffffff"></rect>
<rect transform="translate(0 96)" width="830" height="1" fill="#e0e0e0"></rect>
<rect transform="translate(0 144)" width="830" height="48" fill="#ffffff"></rect>
<rect transform="translate(0 144)" width="830" height="1" fill="#e0e0e0"></rect>
<rect transform="translate(0 192)" width="830" height="48" fill="#ffffff"></rect>
<rect transform="translate(0 192)" width="830" height="1" fill="#e0e0e0"></rect>
<rect transform="translate(0 240)" width="830" height="48" fill="#ffffff"></rect>
<rect transform="translate(0 240)" width="830" height="1" fill="#e0e0e0"></rect>
<rect transform="translate(0 288)" width="830" height="48" fill="#ffffff"></rect>
<rect transform="translate(0 288)" width="830" height="1" fill="#e0e0e0"></rect>
<rect transform="translate(0 336)" width="830" height="48" fill="#ffffff"></rect>
<rect transform="translate(0 336)" width="830" height="1" fill="#e0e0e0"></rect>
<rect transform="translate(0 384)" width="830" height="48" fill="#ffffff"></rect>
<rect transform="translate(0 384)" width="830" height="1" fill="#e0e0e0"></rect>
<rect transform="translate(0 432)" width="830" height="48" fill="#ffffff"></rect>
<rect transform="translate(0 432)" width="830" height="1" fill="#e0e0e0"></rect>
<rect transform="translate(0 480)" width="830" height="48" fill="#ffffff"></rect>
<rect transform="translate(0 480)" width="830" height="1" fill="#e0e0e0"></rect>
<rect transform="translate(0 528)" width="830" height="48" fill="#ffffff"></rect>
<rect transform="translate(0 528)" width="830" height="1" fill="#e0e0e0"></rect>
<rect transform="translate(0 576)" width="830" height="48" fill="#ffffff"></rect>
<rect transform="translate(0 576)" width="830" height="1" fill="#e0e0e0"></rect>
<rect transform="translate(0 624)" width="830" height="48" fill="#ffffff"></rect>
<rect transform="translate(0 624)" width="830" height="1" fill="#e0e0e0"></rect>
<rect transform="translate(0 672)" width="830" height="48" fill="#ffffff"></rect>
<rect transform="translate(0 672)" width="830" height="1" fill="#e0e0e0"></rect>
<rect transform="translate(0 720)" width="830" height="48" fill="#ffffff"></rect>
<rect transform="translate(0 720)" width="830" height="1" fill="#e0e0e0"></rect>
<rect transform="translate(0 768)" width="830" height="48" fill="#ffffff"></rect>
<rect transform="translate(0 768)" width="830" height="1" fill="#e0e0e0"></rect>
<rect transform="translate(0 816)" width="830" height="48" fill="#ffffff"></rect>
<rect transform="translate(0 816)" width="830" height="1" fill="#e0e0e0"></rect>
<rect transform="translate(0 864)" width="830" height="48" fill="#ffffff"></rect>
<rect transform="translate(0 864)" width="830" height="1" fill="#e0e0e0"></rect>
<rect transform="translate(0 912)" width="830" height="48" fill="#ffffff"></rect>
<rect transform="translate(0 912)" width="830" height="1" fill="#e0e0e0"></rect>
<rect transform="translate(0 960)" width="830" height="48" fill="#ffffff"></rect>
<rect transform="translate(0 960)" width="830" height="1" fill="#e0e0e0"></rect>
<rect transform="translate(0 1008)" width="830" height="48" fill="#ffffff"></rect>
<rect transform="translate(0 1008)" width="830" height="1" fill="#e0e0e0"></rect>
<g>
<text transform="translate(-17 28)" font-size="12" font-family="Noto-Bold,Noto">
<tspan x="0" y="0" style="font-weight:bold;">LAWFUL INTERCEPTION</tspan>
<tspan x="0" y="0" style="font-weight:bold;">PLATFORMS</tspan>
</text>
<text transform="translate(2 76)" font-size="12" font-family="Noto-Regular,Noto">
<tspan x="0" y="0">Tempora esse velit.</tspan>
</text>
<text transform="translate(2 124)" font-size="12" font-family="Noto-Regular,Noto">
<tspan x="0" y="0">Et ex repudiandae.</tspan>
</text>
<text transform="translate(2 172)" font-size="12" font-family="Noto-Regular,Noto">
<tspan x="0" y="0">In rerum exercitationem.</tspan>
</text>
<text transform="translate(2 220)" font-size="12" font-family="Noto-Regular,Noto">
<tspan x="0" y="0">Blanditiis eius reprehenderit.</tspan>
</text>
<text transform="translate(2 268)" font-size="12" font-family="Noto-Regular,Noto">
<tspan x="0" y="0">Quia corporis cupiditate.</tspan>
</text>
<text transform="translate(2 316)" font-size="12" font-family="Noto-Regular,Noto">
<tspan x="0" y="0">Atque fuga ut.</tspan>
</text>
<text transform="translate(2 364)" font-size="12" font-family="Noto-Regular,Noto">
<tspan x="0" y="0">Est natus error.</tspan>
</text>
<text transform="translate(2 412)" font-size="12" font-family="Noto-Regular,Noto">
<tspan x="0" y="0">Accusantium consequatur magnam.</tspan>
</text>
<text transform="translate(2 460)" font-size="12" font-family="Noto-Regular,Noto">
<tspan x="0" y="0">Veritatis voluptatibus voluptatem.</tspan>
</text>
<text transform="translate(2 508)" font-size="12" font-family="Noto-Regular,Noto">
<tspan x="0" y="0">Beatae dolorum accusamus.</tspan>
</text>
<text transform="translate(2 556)" font-size="12" font-family="Noto-Regular,Noto">
<tspan x="0" y="0">Dolores dolorem quo.</tspan>
</text>
<text transform="translate(2 604)" font-size="12" font-family="Noto-Regular,Noto">
<tspan x="0" y="0">Quia sed temporibus.</tspan>
</text>
<text transform="translate(2 652)" font-size="12" font-family="Noto-Regular,Noto">
<tspan x="0" y="0">Esse dicta repellendus.</tspan>
</text>
<text transform="translate(2 700)" font-size="12" font-family="Noto-Regular,Noto">
<tspan x="0" y="0">Qui rem nostrum.</tspan>
</text>
<text transform="translate(2 748)" font-size="12" font-family="Noto-Regular,Noto">
<tspan x="0" y="0">Sed aspernatur aliquid.</tspan>
</text>
<text transform="translate(2 796)" font-size="12" font-family="Noto-Regular,Noto">
<tspan x="0" y="0">Explicabo ut qui.</tspan>
</text>
<text transform="translate(2 844)" font-size="12" font-family="Noto-Regular,Noto">
<tspan x="0" y="0">Quae quaerat doloremque.</tspan>
</text>
<text transform="translate(2 892)" font-size="12" font-family="Noto-Regular,Noto">
<tspan x="0" y="0">Numquam accusantium quis.</tspan>
</text>
<text transform="translate(2 940)" font-size="12" font-family="Noto-Regular,Noto">
<tspan x="0" y="0">Totam sed voluptate.</tspan>
</text>
<text transform="translate(2 988)" font-size="12" font-family="Noto-Regular,Noto">
<tspan x="0" y="0">Nesciunt et quis.</tspan>
</text>
<text transform="translate(2 1036)" font-size="12" font-family="Noto-Regular,Noto">
<tspan x="0" y="0">Voluptas quia quia.</tspan>
</text>
</g>
<g>
<text transform="translate(221 28)" font-size="12" font-family="Noto-Bold,Noto">
<tspan x="0" y="0" style="font-weight:bold;">• DevilsTongue</tspan>
<tspan x="0" y="0" style="font-weight:bold;">• Sourgum</tspan>
</text>
<text transform="translate(209 76)" font-size="12" font-family="Noto-Regular,Noto">
<tspan x="0" y="0">Molestiae quia ab.</tspan>
</text>
<text transform="translate(209 124)" font-size="12" font-family="Noto-Regular,Noto">
<tspan x="0" y="0">Iste at aut.</tspan>
</text>
<text transform="translate(209 172)" font-size="12" font-family="Noto-Regular,Noto">
<tspan x="0" y="0">Minus quasi sed.</tspan>
</text>
<text transform="translate(209 220)" font-size="12" font-family="Noto-Regular,Noto">
<tspan x="0" y="0">Qui ipsa dicta.</tspan>
</text>
<text transform="translate(209 268)" font-size="12" font-family="Noto-Regular,Noto">
<tspan x="0" y="0">Ad quos et.</tspan>
</text>
<text transform="translate(209 316)" font-size="12" font-family="Noto-Regular,Noto">
<tspan x="0" y="0">Ut ut placeat.</tspan>
</text>
<text transform="translate(209 364)" font-size="12" font-family="Noto-Regular,Noto">
<tspan x="0" y="0">Sit doloremque ea.</tspan>
</text>
<text transform="translate(209 412)" font-size="12" font-family="Noto-Regular,Noto">
<tspan x="0" y="0">Quo sint qui.</tspan>
</text>
<text transform="translate(209 460)" font-size="12" font-family="Noto-Regular,Noto">
<tspan x="0" y="0">Laudantium at repellat.</tspan>
</text>
<text transform="translate(209 508)" font-size="12" font-family="Noto-Regular,Noto">
<tspan x="0" y="0">Eum aliquam quis.</tspan>
</text>
<text transform="translate(209 556)" font-size="12" font-family="Noto-Regular,Noto">
<tspan x="0" y="0">Velit delectus voluptatem.</tspan>
</text>
<text transform="translate(209 604)" font-size="12" font-family="Noto-Regular,Noto">
<tspan x="0" y="0">Delectus aut omnis.</tspan>
</text>
<text transform="translate(209 652)" font-size="12" font-family="Noto-Regular,Noto">
<tspan x="0" y="0">Ullam ut vel.</tspan>
</text>
<text transform="translate(209 700)" font-size="12" font-family="Noto-Regular,Noto">
<tspan x="0" y="0">Porro ipsam amet.</tspan>
</text><text transform="translate(209 748)" font-size="12" font-family="Noto-Regular,Noto">
<tspan x="0" y="0">Dolores voluptas maiores.</tspan>
</text>
<text transform="translate(209 796)" font-size="12" font-family="Noto-Regular,Noto">
<tspan x="0" y="0">Quis adipisci impedit.</tspan>
</text>
<text transform="translate(209 844)" font-size="12" font-family="Noto-Regular,Noto">
<tspan x="0" y="0">Et aliquam fugiat.</tspan>
</text>
<text transform="translate(209 892)" font-size="12" font-family="Noto-Regular,Noto">
<tspan x="0" y="0">Fuga et exercitationem.</tspan>
</text>
<text transform="translate(209 940)" font-size="12" font-family="Noto-Regular,Noto">
<tspan x="0" y="0">Sapiente officia ea.</tspan>
</text>
<text transform="translate(209 988)" font-size="12" font-family="Noto-Regular,Noto">
<tspan x="0" y="0">Voluptates explicabo repellat.</tspan>
</text>
<text transform="translate(209 1036)" font-size="12" font-family="Noto-Regular,Noto">
<tspan x="0" y="0">Aut aliquid illum.</tspan>
</text>
</g>
<rect transform="translate(207 0)" width="1" height="1056" fill="#e0e0e0"></rect>
<g>
<text transform="translate(475 28)" font-size="12" font-family="Noto-Bold,Noto">
<tspan x="0" y="0" style="font-weight:bold;">• Pegasus</tspan>
</text>
<text transform="translate(416 76)" font-size="12" font-family="Noto-Regular,Noto">
<tspan x="0" y="0">Magnam eaque beatae.</tspan>
</text>
<text transform="translate(416 124)" font-size="12" font-family="Noto-Regular,Noto">
<tspan x="0" y="0">Recusandae nemo eum.</tspan>
</text><text transform="translate(416 172)" font-size="12" font-family="Noto-Regular,Noto">
<tspan x="0" y="0">Magni animi et.</tspan></text>
<text transform="translate(416 220)" font-size="12" font-family="Noto-Regular,Noto">
<tspan x="0" y="0">Quis laborum porro.</tspan></text>
<text transform="translate(416 268)" font-size="12" font-family="Noto-Regular,Noto">
<tspan x="0" y="0">Quia nisi sequi.</tspan></text>
<text transform="translate(416 316)" font-size="12" font-family="Noto-Regular,Noto">
<tspan x="0" y="0">Nesciunt dolor expedita.</tspan></text>
<text transform="translate(416 364)" font-size="12" font-family="Noto-Regular,Noto">
<tspan x="0" y="0">Nostrum aut alias.</tspan></text>
<text transform="translate(416 412)" font-size="12" font-family="Noto-Regular,Noto">
<tspan x="0" y="0">Qui temporibus provident.</tspan></text>
<text transform="translate(416 460)" font-size="12" font-family="Noto-Regular,Noto">
<tspan x="0" y="0">Vero consequatur occaecati.</tspan></text>
<text transform="translate(416 508)" font-size="12" font-family="Noto-Regular,Noto">
<tspan x="0" y="0">Quis iure ducimus.</tspan></text>
<text transform="translate(416 556)" font-size="12" font-family="Noto-Regular,Noto">
<tspan x="0" y="0">Vel laborum delectus.</tspan></text>
<text transform="translate(416 604)" font-size="12" font-family="Noto-Regular,Noto">
<tspan x="0" y="0">Quis et qui.</tspan></text>
<text transform="translate(416 652)" font-size="12" font-family="Noto-Regular,Noto">
<tspan x="0" y="0">Et aliquid necessitatibus.</tspan>
</text>
<text transform="translate(416 700)" font-size="12" font-family="Noto-Regular,Noto">
<tspan x="0" y="0">Voluptas quis et.</tspan></text>
<text transform="translate(416 748)" font-size="12" font-family="Noto-Regular,Noto">
<tspan x="0" y="0">Ea magnam qui.</tspan></text>
<text transform="translate(416 796)" font-size="12" font-family="Noto-Regular,Noto">
<tspan x="0" y="0">Culpa temporibus dolore.</tspan></text>
<text transform="translate(416 844)" font-size="12" font-family="Noto-Regular,Noto">
<tspan x="0" y="0">Magnam facere repudiandae.</tspan></text>
<text transform="translate(416 892)" font-size="12" font-family="Noto-Regular,Noto">
<tspan x="0" y="0">Nisi vel rem.</tspan></text>
<text transform="translate(416 940)" font-size="12" font-family="Noto-Regular,Noto">
<tspan x="0" y="0">Vel quibusdam dolore.</tspan></text>
<text transform="translate(416 988)" font-size="12" font-family="Noto-Regular,Noto">
<tspan x="0" y="0">Perspiciatis beatae ullam.</tspan></text>
<text transform="translate(416 1036)" font-size="12" font-family="Noto-Regular,Noto">
<tspan x="0" y="0">Et possimus numquam.</tspan></text>
</g>
<rect transform="translate(414 0)" width="1" height="1056" fill="#e0e0e0">
</rect>
<g>
<text transform="translate(620 28)" font-size="12" font-family="Noto-Bold,Noto">
<tspan x="0" y="0" style="font-weight:bold;">• Drive Badger • Funkcjonariusz</tspan></text>
<text transform="translate(623 76)" font-size="12" font-family="Noto-Regular,Noto">
<tspan x="0" y="0">Maiores doloribus repellat.</tspan></text>
<text transform="translate(623 124)" font-size="12" font-family="Noto-Regular,Noto">
<tspan x="0" y="0">Placeat et aspernatur.</tspan></text>
<text transform="translate(623 172)" font-size="12" font-family="Noto-Regular,Noto">
<tspan x="0" y="0">Molestiae magnam eum.</tspan></text>
<text transform="translate(623 220)" font-size="12" font-family="Noto-Regular,Noto">
<tspan x="0" y="0">Assumenda delectus molestias.</tspan></text>
<text transform="translate(623 268)" font-size="12" font-family="Noto-Regular,Noto">
<tspan x="0" y="0">Ut ab sed.</tspan></text>
<text transform="translate(623 316)" font-size="12" font-family="Noto-Regular,Noto">
<tspan x="0" y="0">Impedit minima numquam.</tspan></text>
<text transform="translate(623 364)" font-size="12" font-family="Noto-Regular,Noto">
<tspan x="0" y="0">Enim quia quidem.</tspan></text>
<text transform="translate(623 412)" font-size="12" font-family="Noto-Regular,Noto">
<tspan x="0" y="0">Provident eaque et.</tspan></text>
<text transform="translate(623 460)" font-size="12" font-family="Noto-Regular,Noto">
<tspan x="0" y="0">Quos iste dignissimos.</tspan></text>
<text transform="translate(623 508)" font-size="12" font-family="Noto-Regular,Noto">
<tspan x="0" y="0">Deleniti commodi enim.</tspan></text>
<text transform="translate(623 556)" font-size="12" font-family="Noto-Regular,Noto">
<tspan x="0" y="0">Officia laudantium et.</tspan></text>
<text transform="translate(623 604)" font-size="12" font-family="Noto-Regular,Noto">
<tspan x="0" y="0">Odio quam voluptatem.</tspan></text>
<text transform="translate(623 652)" font-size="12" font-family="Noto-Regular,Noto">
<tspan x="0" y="0">Qui eum doloribus.</tspan></text>
<text transform="translate(623 700)" font-size="12" font-family="Noto-Regular,Noto">
<tspan x="0" y="0">Ratione qui quas.</tspan></text>
<text transform="translate(623 748)" font-size="12" font-family="Noto-Regular,Noto">
<tspan x="0" y="0">Dicta sunt pariatur.</tspan></text>
<text transform="translate(623 796)" font-size="12" font-family="Noto-Regular,Noto">
<tspan x="0" y="0">Sapiente totam placeat.</tspan></text>
<text transform="translate(623 844)" font-size="12" font-family="Noto-Regular,Noto">
<tspan x="0" y="0">Impedit fugiat et.</tspan></text>
<text transform="translate(623 892)" font-size="12" font-family="Noto-Regular,Noto">
<tspan x="0" y="0">Dicta deserunt harum.</tspan></text>
<text transform="translate(623 940)" font-size="12" font-family="Noto-Regular,Noto">
<tspan x="0" y="0">In qui tenetur.</tspan></text>
<text transform="translate(623 988)" font-size="12" font-family="Noto-Regular,Noto">
<tspan x="0" y="0">Velit quaerat et.</tspan></text>
<text transform="translate(623 1036)" font-size="12" font-family="Noto-Regular,Noto">
<tspan x="0" y="0">Expedita hic rerum.</tspan></text>
</g>
<rect transform="translate(621 0)" width="1" height="1056" fill="#e0e0e0"></rect>
<rect transform="translate(0 0)" width="1" height="1056" fill="#e0e0e0"></rect>
<rect transform="translate(829 0)" width="1" height="1056" fill="#e0e0e0"></rect>
</g>
<rect transform="translate(0 1056)" width="830" height="1" fill="#e0e0e0"></rect>
</svg>